<?xml version="1.0" encoding="utf-8"?>
<!-- Svg Vector Icons : http://www.onlinewebfonts.com/icon -->
<!DOCTYPE svg PUBLIC "-//W3C//DTD SVG 1.1//EN" "http://www.w3.org/Graphics/SVG/1.1/DTD/svg11.dtd">
<svg version="1.1" xmlns="http://www.w3.org/2000/svg" xmlns:xlink="http://www.w3.org/1999/xlink" x="0px" y="0px" viewBox="0 0 1000 1000" enable-background="new 0 0 1000 1000" xml:space="preserve">
<metadata> Svg Vector Icons : http://www.onlinewebfonts.com/icon </metadata>
<g><g transform="translate(0.000000,511.000000) scale(0.100000,-0.100000)"><path d="M3477.8,3472.3c-15.8-3.9-96.7-17.8-177.7-29.6c-1036.5-167.8-1932.8-1119.4-2223-2359.2c-49.4-207.3-63.2-242.8-114.5-284.3c-225.1-179.7-469.9-487.6-614-771.9C22.8-618.3,16.9-1439.6,332.8-2065.4c302.1-596.2,795.6-1002.9,1403.7-1160.9c122.4-31.6,355.4-33.6,3222-33.6h3089.7l195.5,55.3c714.7,199.4,1297.1,766,1547.8,1504.4c79,233,108.6,424.5,108.6,700.9c0,390.9-63.2,649.6-242.8,1016.8c-351.4,710.7-1038.4,1194.4-1768.9,1245.8l-181.6,13.8l-35.5,90.8c-209.3,558.7-677.2,1060.2-1198.4,1279.3c-252.7,106.6-442.2,146.1-762.1,157.9l-282.3,11.8l-163.9,122.4c-394.9,298.1-771.9,458-1224,521.2C3904.2,3480.2,3552.8,3486.2,3477.8,3472.3z M4129.3,3038c349.4-73,720.6-270.5,1006.9-535c136.2-124.4,146.1-128.3,408.7-114.5c523.2,29.6,916-104.6,1255.6-424.5c234.9-223.1,392.9-481.7,517.3-848.9c86.9-260.6,94.8-266.5,438.3-268.5c335.6-4,479.7-35.5,746.3-167.8C8845.8,507,9104.4,244.4,9284-120.8c134.3-274.4,177.7-454.1,189.5-785.8c11.8-306-9.9-493.6-86.9-722.6c-199.4-596.2-663.3-1032.6-1249.7-1178.6c-142.1-35.5-282.3-37.5-3188.4-37.5c-2819.2,0-3050.2,2-3172.6,33.6c-708.8,183.6-1186.5,819.3-1269.4,1697.9C474.9-794,583.5-351.8,765.1-47.8c96.7,159.9,327.7,414.6,539,588.3l104.6,88.8l49.4,236.9c59.2,292.2,173.7,643.6,278.4,852.9C2228.1,2694.5,3201.4,3229.5,4129.3,3038z"/><path d="M3497.5,972.9c-106.6-43.4-159.9-150-128.3-258.6c7.9-23.7,268.5-300.1,578.5-614l566.6-566.6L3957.5-1025c-304-306-564.6-576.5-576.5-600.2c-77-150,80.9-335.6,240.9-284.3c41.5,13.8,254.7,213.2,625.8,584.4l562.7,562.7l562.7-562.7c311.9-310,588.3-570.5,619.9-582.4c132.3-49.4,268.5,53.3,268.5,203.3c0,81-7.9,88.8-576.5,659.4l-578.4,578.5L5685,112.2c568.6,570.6,576.5,578.5,576.5,659.4c0,156-142.2,256.7-278.4,197.4c-39.5-17.8-302.1-266.5-619.9-584.4l-552.8-554.8l-572.5,572.5C3639.7,1000.6,3612,1020.3,3497.5,972.9z"/></g></g>
</svg>